<svg xmlns="http://www.w3.org/2000/svg" width="39.112" height="34.417" viewBox="0 0 39.112 34.417">
  <g id="ArtStation-logomark-white" transform="translate(-51.4 -51.5)">
    <path id="Path_16" data-name="Path 16" d="M51.4,123.3l3.29,5.693h0a3.971,3.971,0,0,0,3.512,2.181H80.124L75.577,123.3Z" transform="translate(0 -45.257)" fill="#4a4a4a"/>
    <path id="Path_17" data-name="Path 17" d="M116.67,78.08a3.934,3.934,0,0,0-.628-2.144L103.177,53.607A3.916,3.916,0,0,0,99.7,51.5H92.9l19.852,34.38,3.142-5.434A4.066,4.066,0,0,0,116.67,78.08Z" transform="translate(-26.158 0)" fill="#4a4a4a"/>
    <path id="Path_18" data-name="Path 18" d="M77.907,81.942,69.072,66.6,60.2,81.942Z" transform="translate(-5.547 -9.518)" fill="#4a4a4a"/>
  </g>
</svg>
